<svg width="265.000000" height="68.000000" viewBox="0 0 265 68" fill="none" xmlns="http://www.w3.org/2000/svg" xmlns:xlink="http://www.w3.org/1999/xlink">
	<desc>
			Created with Pixso.
	</desc>
	<path id="Oval 1" d="M28.2632 19.2547C28.2632 8.62062 5.11279 0 15.6316 0C26.1504 0 34.6777 8.62062 34.6777 19.2547C34.6777 29.8888 26.1504 38.5094 15.6316 38.5094C5.11279 38.5094 28.2632 29.8888 28.2632 19.2547Z" fill-rule="evenodd" fill="#FFFFFF"/>
	<rect id="Rectangle 1" width="5.881582" height="68.000000" fill="#FFFFFF"/>
	<path id="Polygon 1" d="M27.3552 52.8556L12.908 39.108L28.8552 68L42 68L27.3552 52.8556Z" fill-rule="evenodd" fill="#FFFFFF"/>
	<path id="Text" d="M193.734 15.5312L186.07 15.5312L186.07 19.5625L189.375 19.5625L189.375 28.8672Q188.039 27.9062 186.586 27.5195Q185.133 27.1328 183.375 27.1328Q180.703 27.1328 178.523 28.0352Q176.824 28.7386 175.51 29.8836Q175.138 30.2074 174.797 30.5664Q173.25 32.1953 172.406 34.5039Q171.562 36.8125 171.562 39.625Q171.562 42.7188 172.441 45.1211Q173.32 47.5234 174.879 49.1758Q175.6 49.9399 176.441 50.5337Q177.418 51.2238 178.559 51.6836Q178.586 51.6947 178.614 51.7056Q180.712 52.5391 183.141 52.5391Q185.109 52.5391 186.656 51.8711Q187.498 51.5076 188.229 50.9881Q188.841 50.5527 189.375 50.0078L189.375 52L197.297 52L197.297 47.9688L193.734 47.9688L193.734 15.5312ZM131.944 31.6498Q133.407 32.4725 134.367 34.1875L138.773 34.1875L138.773 30.1562L136.312 30.1562Q135.399 29.2016 134.311 28.5328Q133.555 28.0687 132.715 27.7422Q132.331 27.5929 131.938 27.4715Q130.234 26.9453 128.367 26.9453Q126.586 26.9453 124.967 27.4585Q124.371 27.6476 123.797 27.9062Q122.673 28.4125 121.699 29.1238Q120.824 29.7625 120.07 30.5664Q118.477 32.2656 117.562 34.6328Q116.648 37 116.648 39.8125Q116.648 42.625 117.516 44.9922Q118.383 47.3594 119.941 49.0703Q120.6 49.7928 121.362 50.3795Q122.406 51.1821 123.645 51.7305Q123.791 51.7952 123.939 51.8556Q125.962 52.6797 128.32 52.6797Q130.055 52.6797 131.613 52.2227Q133.172 51.7656 134.473 50.9219Q134.83 50.6898 135.168 50.4312Q136.057 49.7494 136.805 48.8828Q137.836 47.6875 138.539 46.1875L134.93 44.4062Q133.958 46.4876 132.325 47.5764Q132.303 47.591 132.281 47.6055Q132.05 47.7569 131.808 47.8873Q130.305 48.6953 128.367 48.6953Q127.281 48.6953 126.295 48.3792Q125.899 48.2522 125.52 48.0742Q125.234 47.9404 124.964 47.7815Q123.978 47.2032 123.188 46.293Q122.18 45.1328 121.605 43.4922Q121.031 41.8516 121.031 39.8125Q121.031 37.75 121.605 36.0742Q122.18 34.3984 123.176 33.2266Q123.895 32.3805 124.791 31.8154Q125.136 31.5978 125.508 31.4219Q125.968 31.204 126.45 31.0612Q127.368 30.7891 128.367 30.7891Q130.359 30.7891 131.871 31.6094Q131.908 31.6293 131.944 31.6498ZM143.637 34.6094Q142.734 36.9766 142.711 39.8594Q142.734 42.7188 143.625 45.0859Q144.516 47.4531 146.109 49.1523Q146.574 49.6475 147.092 50.078Q148.352 51.1248 149.93 51.7891Q152.156 52.7266 154.898 52.7266Q157.594 52.7266 159.832 51.7773Q161.45 51.0913 162.731 50.0073Q163.222 49.5915 163.664 49.1172Q165.258 47.4062 166.148 45.0273Q167.039 42.6484 167.039 39.8125Q167.039 36.9297 166.148 34.5625Q165.258 32.1953 163.664 30.5195Q163.265 30.1 162.826 29.7282Q161.51 28.6149 159.832 27.9297Q157.594 27.0156 154.898 27.0156Q152.227 27.0156 150 27.9297Q148.559 28.5211 147.374 29.4412Q146.727 29.9432 146.156 30.543Q146.121 30.5803 146.086 30.6179Q144.519 32.2942 143.637 34.6094ZM205.746 42.3086Q205.594 41.4531 205.594 40.4219L223.078 40.4219Q223.078 39.5547 223.043 38.6406Q223.008 37.7266 222.891 36.8359Q222.816 36.2565 222.706 35.6842Q222.467 34.4507 222.059 33.25Q221.618 31.9538 220.871 30.8679Q220.605 30.4811 220.301 30.1211Q219.141 28.75 217.301 27.918Q215.461 27.0859 212.719 27.0859Q209.883 27.0859 207.75 28.0938Q206.124 28.8623 204.899 30.0465Q204.518 30.4152 204.176 30.8242Q204.14 30.8666 204.105 30.9093Q202.717 32.6037 202.008 34.8555Q201.281 37.1641 201.281 39.7656Q201.281 42.9766 202.137 45.3906Q202.992 47.8047 204.504 49.4219Q205.126 50.0879 205.848 50.6188Q206.88 51.3769 208.113 51.8594Q210.211 52.6797 212.672 52.6797Q214.565 52.6797 216.36 52.2575Q217.031 52.0997 217.688 51.8828Q220.102 51.0859 222.492 49.4453L220.734 46.4688Q218.766 47.5938 216.973 48.1211Q216.421 48.2834 215.859 48.3957Q214.595 48.6484 213.281 48.6484Q211.507 48.6484 210.004 48.0089Q209.463 47.7784 208.957 47.4648Q208.471 47.1638 208.053 46.7876Q206.826 45.6851 206.18 43.9375Q205.898 43.1641 205.746 42.3086ZM104.227 47.9688L100.805 47.9688L100.805 52L112.148 52L112.148 47.9688L108.773 47.9688L108.773 36.3438Q108.773 34 108.176 32.2773Q107.578 30.5547 106.477 29.4531Q106.264 29.2409 106.035 29.0496Q105.073 28.2477 103.805 27.8125Q102.234 27.2734 100.289 27.2734Q99.1406 27.2734 98.0977 27.5312Q97.1709 27.7603 96.3091 28.1374Q96.2009 28.1847 96.0938 28.2344Q95.929 28.3107 95.7666 28.3919Q94.9822 28.7841 94.2539 29.2891Q93.375 29.8984 92.6016 30.5781L92.5547 30.5781L92.5547 27.7188L84.8203 27.7188L84.8203 31.75L88.1953 31.75L88.1953 47.9688L84.8203 47.9688L84.8203 52L96.1641 52L96.1641 47.9688L92.7422 47.9688L92.7422 33.7422Q94.125 32.6641 95.6719 31.9375Q97.2188 31.2109 98.7422 31.2109Q101.145 31.2109 102.535 32.3975Q102.677 32.5188 102.809 32.6523Q102.834 32.678 102.859 32.7041Q104.227 34.1434 104.227 36.8828L104.227 47.9688ZM242.016 32.8516L246.469 32.8516L246.469 27.5781Q245.391 27.5312 244.312 27.5312L242.016 27.5312Q241.102 27.5312 240.316 27.8008Q239.662 28.0254 239.105 28.3965Q238.994 28.4707 238.887 28.5508Q238.242 29.0312 237.715 29.6758Q237.188 30.3203 236.766 31.0703L236.766 27.7188L229.008 27.7188L229.008 31.75L232.383 31.75L232.359 47.9688L229.008 47.9688L229.008 52L241.055 52L241.055 47.9688L236.93 47.9688L236.93 36.25Q237.164 34.9844 237.691 34.0586Q238.219 33.1328 238.922 32.5352Q239.625 31.9375 240.434 31.6445Q241.242 31.3516 242.016 31.3516L242.016 32.8516ZM75.6328 27.7188L67.8047 27.7188L67.8047 31.75L71.0625 31.75L71.0625 46.5391Q70.1948 47.103 69.2605 47.5153Q68.6802 47.7712 68.0742 47.9688Q66.4922 48.4844 65.0625 48.4844Q63.0815 48.4844 61.8582 47.5217Q61.5906 47.3112 61.3594 47.0547Q60.0703 45.625 60.0703 42.8359L60.0703 27.7188L52.2422 27.7188L52.2422 31.75L55.5234 31.75L55.5234 43.3516Q55.5234 45.7188 56.0859 47.4297Q56.6484 49.1406 57.6914 50.2539Q58.0532 50.6401 58.4685 50.9557Q59.2505 51.5501 60.2227 51.8945Q61.7109 52.4219 63.5391 52.4219Q65.7422 52.4219 67.6758 51.7188Q68.4976 51.4199 69.2666 51.0194Q70.3066 50.4777 71.25 49.75L71.25 52L78.3281 52L78.3281 47.9688L75.6328 47.9688L75.6328 27.7188ZM209.754 31.1758Q210.891 30.7422 212.414 30.7422Q214.031 30.7422 215.133 31.2109Q216.101 31.6229 216.761 32.3246Q216.852 32.4213 216.938 32.5234Q217.641 33.3672 217.98 34.5156Q218.32 35.6641 218.414 37.0234L205.828 37.0234Q206.062 35.5703 206.543 34.3984Q207.023 33.2266 207.82 32.418Q207.921 32.3156 208.027 32.2193Q208.761 31.5545 209.754 31.1758ZM147.926 43.6328Q147.328 41.9453 147.328 39.8594Q147.328 37.6562 147.926 35.9453Q148.523 34.2344 149.566 33.0859Q150.313 32.2633 151.229 31.7293Q151.592 31.5178 151.98 31.3516Q152.355 31.1914 152.743 31.075Q153.774 30.7656 154.898 30.7656Q156.321 30.7656 157.58 31.219Q157.752 31.281 157.922 31.3516Q158.568 31.621 159.133 32.0093Q159.797 32.4655 160.348 33.0859Q161.367 34.2344 161.953 35.9453Q162.539 37.6562 162.539 39.8594Q162.539 41.9688 161.953 43.6562Q161.367 45.3438 160.336 46.5273Q159.679 47.2812 158.875 47.8116Q158.417 48.114 157.91 48.3438Q157.631 48.4702 157.344 48.5714Q156.192 48.9766 154.898 48.9766Q153.956 48.9766 153.079 48.7373Q152.516 48.5839 151.98 48.332Q151.628 48.1662 151.297 47.9648Q150.341 47.383 149.566 46.5039Q148.523 45.3203 147.926 43.6328ZM186.961 48.168Q185.648 48.7422 183.703 48.7422Q182.039 48.7422 180.633 48.1562Q179.988 47.8877 179.428 47.4987Q178.765 47.0387 178.219 46.4102Q177.211 45.25 176.648 43.5391Q176.086 41.8281 176.086 39.5781Q176.086 37.5156 176.672 35.9219Q177.258 34.3281 178.277 33.2266Q178.885 32.5705 179.612 32.1014Q180.106 31.783 180.656 31.5508Q180.935 31.433 181.222 31.3394Q182.333 30.9766 183.562 30.9766Q184.441 30.9766 185.299 31.1119Q185.996 31.2221 186.68 31.4219Q187.767 31.7396 188.675 32.3318Q189.039 32.5696 189.375 32.8516L189.375 46.4453Q188.273 47.5938 186.961 48.168Z" fill="#FFFFFFFF"/>
	<defs/>
</svg>
